<?xml version="1.0" encoding="iso-8859-1"?>
<!-- Generator: Adobe Illustrator 27.5.0, SVG Export Plug-In . SVG Version: 6.00 Build 0)  -->
<svg version="1.1" id="Layer_1" xmlns="http://www.w3.org/2000/svg" xmlns:xlink="http://www.w3.org/1999/xlink" x="0px" y="0px"
	 width="1037.381px" height="280.115px" viewBox="0 0 1037.381 280.115" enable-background="new 0 0 1037.381 280.115"
	 xml:space="preserve">
<g>
	<path fill="#1B3765" d="M997.437,23.708c0-3.077,0.712-5.934,2.137-8.569c1.424-2.636,3.396-4.711,5.918-6.227
		c2.521-1.516,5.245-2.274,8.17-2.274s5.645,0.758,8.158,2.274c2.514,1.516,4.482,3.591,5.907,6.227
		c1.424,2.636,2.137,5.492,2.137,8.569c0,3.001-0.686,5.812-2.057,8.432c-1.371,2.621-3.317,4.727-5.839,6.318
		c-2.521,1.592-5.29,2.388-8.307,2.388c-3.001,0-5.763-0.789-8.283-2.365c-2.522-1.577-4.476-3.675-5.862-6.295
		C998.13,29.565,997.437,26.739,997.437,23.708z M1000.064,23.696c0,2.619,0.609,5.042,1.828,7.273
		c1.219,2.23,2.875,3.977,4.97,5.24c2.095,1.264,4.361,1.896,6.799,1.896c2.452,0,4.73-0.643,6.833-1.929
		c2.102-1.286,3.751-3.033,4.947-5.241c1.195-2.207,1.794-4.62,1.794-7.238c0-2.603-0.599-5.004-1.794-7.204
		c-1.196-2.199-2.846-3.935-4.947-5.206c-2.103-1.271-4.381-1.907-6.833-1.907c-2.438,0-4.707,0.628-6.81,1.884
		c-2.103,1.256-3.759,2.996-4.971,5.218C1000.67,18.703,1000.064,21.108,1000.064,23.696z M1010.302,25.421v7.724h-3.222V13.744
		h6.307c2.331,0,4.14,0.499,5.428,1.497c1.287,0.998,1.931,2.449,1.931,4.354c0,1.874-0.976,3.306-2.925,4.296
		c1.858,0.762,2.795,2.316,2.811,4.662v1.394c0,1.311,0.129,2.255,0.389,2.833v0.366h-3.313c-0.214-0.548-0.32-1.527-0.32-2.937
		c0-1.409-0.022-2.243-0.068-2.502c-0.244-1.462-1.242-2.224-2.993-2.285H1010.302z M1010.302,22.496h3.565
		c1.097-0.03,1.979-0.296,2.65-0.796c0.67-0.5,1.006-1.161,1.006-1.98c0-1.108-0.298-1.893-0.892-2.355
		c-0.594-0.463-1.653-0.695-3.177-0.695h-3.153V22.496z"/>
</g>
<g>
	<g>
		<path fill="#1B3765" d="M24.252,255.149c-1.002,0-2.021-0.154-3.027-0.478c-5.183-1.67-8.03-7.226-6.36-12.409
			c8.535-26.481,22.646-81.138,32.951-121.046c6.383-24.722,11.425-44.249,13.475-50.711c8.907-28.077,20.998-42.453,35.937-42.731
			c0.139-0.003,0.28-0.004,0.418-0.004c13.237,0,25.318,11.695,32.383,31.392c3.513,9.792,5.778,16.033,7.437,20.605
			c4.599,12.673,4.599,12.673,13.321,38.989l2.514,7.583c1.714,5.168-1.087,10.748-6.255,12.461
			c-5.17,1.714-10.748-1.087-12.461-6.255l-2.515-7.585c-8.636-26.054-8.636-26.054-13.14-38.468
			c-1.665-4.587-3.937-10.849-7.461-20.673c-4.497-12.538-10.89-18.331-13.833-18.331c-0.014,0-0.027,0-0.041,0
			c-2.894,0.054-10.276,6.18-17.508,28.978c-1.887,5.95-7.12,26.214-13.178,49.679c-10.365,40.146-24.562,95.129-33.275,122.166
			C32.287,252.489,28.416,255.149,24.252,255.149z M148.771,255.146c-0.064,0-0.127,0-0.191,0
			c-13.772-0.111-26.165-12.992-30.838-32.053c-4.157-16.955-7.692-29.562-11.11-41.754c-4.452-15.878-9.056-32.298-15.018-58.235
			c-1.22-5.307,2.093-10.598,7.4-11.818c5.306-1.221,10.598,2.093,11.818,7.4c5.858,25.482,10.195,40.952,14.787,57.33
			c3.461,12.346,7.041,25.112,11.275,42.382c2.679,10.925,8.705,17.004,11.845,17.03c0.006,0,0.013,0,0.02,0
			c3.508,0,10.713-7.64,16.246-28.735c3.518-13.409,25.349-96.029,37.541-141.899c0.01-0.038,0.021-0.075,0.031-0.112
			c2.616-9.393,10.564-37.929,29.285-37.929c0.049,0,0.097,0,0.146,0c11.89,0.094,21.762,11.824,27.084,32.183
			c1.543,5.901,8.012,30.013,15.503,57.932c14.074,52.455,31.59,117.736,33.414,125.437c1.255,5.299-2.022,10.612-7.321,11.867
			c-5.3,1.256-10.612-2.022-11.867-7.321c-1.757-7.418-19.972-75.304-33.271-124.873c-7.809-29.104-13.977-52.092-15.536-58.055
			c-2.621-10.023-6.22-15.389-8.097-17.059c-1.581,1.454-5.743,6.602-10.331,23.052c-12.191,45.866-33.996,128.384-37.509,141.779
			C174.672,247.558,159.727,255.146,148.771,255.146z"/>
	</g>
</g>
<path fill="#1B3765" d="M495.123,234.869H386.954l-0.097-74.58l93.543-0.88c2.914,0,5.255-1.674,7.126-3.374
	c1.694-1.54,2.591-3.983,2.591-6.897c0-2.916-0.803-5.338-2.591-7.126c-1.788-1.788-4.211-2.591-7.126-2.591l-93.447-0.219V46.383
	h108.169c2.914,0,5.181-0.971,7.125-2.591c1.619-1.619,2.591-3.887,2.591-6.802c0-2.914-0.971-5.181-2.591-7.124
	c-1.944-1.619-4.211-2.591-7.125-2.591H376.268c-2.916,0-5.183,0.971-6.802,2.591c-1.943,1.943-2.914,4.21-2.914,7.124V244.26
	c0,2.916,0.971,5.183,2.914,6.802c1.619,1.943,3.886,2.915,6.802,2.915h118.855c2.914,0,5.181-0.971,7.125-2.591
	c1.619-1.619,2.591-3.886,2.591-6.802c0-2.591-0.971-4.857-2.591-6.801C500.304,235.84,498.037,234.869,495.123,234.869
	L495.123,234.869z M729.927,188.8c0.32-29.342-27.108-39.291-37.977-39.683c25.289-8.429,39.009-34.412,39.009-60.438
	c0-36.946-27.413-61.208-64.124-61.208l-82.33-0.196c-2.916,0-5.183,0.971-6.802,2.591c-1.943,1.943-2.914,4.21-2.914,7.124V244.26
	c0,2.916,0.971,5.905,3.238,7.524c3.625,3.106,11.333,3.168,14.574-0.723c1.619-1.619,2.591-3.886,2.591-6.802l-0.177-84.703
	l74.436-0.01c25.917-1.159,40.714,9.92,40.918,28.158c0.184,16.53,0.139,37.657,0.176,58.208c0.01,5.985,4.508,7.887,9.644,7.909
	c5.128,0.022,9.982-3.581,9.988-7.87C730.198,233.372,730.249,202.035,729.927,188.8L729.927,188.8z M595.192,139.331V46.383h71.4
	c25.74,0,45.016,16.313,45.016,42.75c0,25.336-16.411,47.936-42.426,50.198H595.192L595.192,139.331z M965.815,140.707h-61.298
	c-2.889,0-5.136,0.953-7.061,2.542c-1.926,1.906-2.888,4.13-2.888,6.989c0,2.861,0.963,5.085,2.888,6.673
	c1.925,1.906,4.172,2.859,7.061,2.859h50.708v62.911c-7.382,4.448-15.405,7.944-24.713,10.486
	c-9.306,2.542-18.614,3.812-27.922,3.812c-18.293,0-34.34-4.13-48.783-12.392c-14.442-8.26-25.995-19.699-34.019-34.315
	c-8.023-14.298-12.196-30.502-12.196-48.613s4.173-34.315,12.196-48.931c8.024-14.298,19.577-25.737,34.019-33.998
	c14.443-8.26,30.489-12.39,48.783-12.39c17.974,0,34.984,4.448,51.03,13.026c1.605,0.955,3.53,1.59,5.776,1.59
	c2.246,0,4.493-0.953,6.418-2.861c1.606-1.906,2.569-4.13,2.569-6.99c0-3.495-1.605-6.036-4.494-7.944
	c-8.344-5.083-17.651-8.896-28.242-11.755c-10.592-2.861-21.825-4.131-33.058-4.131c-21.823,0-41.4,5.085-59.052,14.934
	c-17.653,9.85-31.452,23.513-41.402,40.988c-9.95,17.475-15.084,36.856-15.084,58.463c0,21.605,5.135,40.987,15.084,58.463
	c9.95,17.475,23.749,31.138,41.402,40.987c17.652,9.85,35.246,14.933,57.07,14.933c12.196,0,26.053-1.906,37.928-5.401
	c11.874-3.495,22.465-8.579,32.094-15.251c3.209-2.224,4.814-5.083,4.814-8.579v-76.573c0-2.859-0.963-5.083-2.567-6.989
	C970.951,141.66,968.704,140.707,965.815,140.707L965.815,140.707z"/>
<g>
</g>
<g>
</g>
<g>
</g>
<g>
</g>
<g>
</g>
<g>
</g>
</svg>
